<svg xmlns="http://www.w3.org/2000/svg" xmlns:xlink="http://www.w3.org/1999/xlink" width="1889" zoomAndPan="magnify" viewBox="0 0 1416.75 1416.749936" height="1889" preserveAspectRatio="xMidYMid meet" version="1.0"><defs><clipPath id="444329e1fd"><path d="M 6 161 L 1122 161 L 1122 619 L 6 619 Z M 6 161 " clip-rule="nonzero"/></clipPath><clipPath id="1c91b9864c"><path d="M 1117.335938 617.066406 C 1115.566406 618.265625 1113.757812 618.457031 1112.75 618.554688 C 1096.054688 620.113281 1058.148438 616.707031 1049.359375 614.6875 C 1023.25 608.667969 1006.097656 591.675781 974.136719 559.1875 C 937.859375 522.300781 919.726562 503.867188 891.417969 473.304688 C 887.476562 469.027344 826.039062 403.410156 744.21875 349.667969 C 739.578125 346.621094 734.371094 343.191406 728.644531 339.492188 C 713.449219 329.6875 694.566406 318.039062 672.691406 306.816406 C 649.382812 294.828125 622.660156 283.324219 593.421875 275.046875 C 561.550781 266.019531 488.207031 249.585938 261.449219 301.777344 C 195.78125 316.890625 108.164062 339.863281 6.128906 374.960938 C 6.070312 372.523438 6.046875 370.082031 6.046875 367.632812 C 6.046875 356.425781 6.558594 345.351562 7.558594 334.40625 L 7.558594 334.394531 C 114.03125 294.269531 190.253906 264.890625 349.355469 211.839844 C 349.355469 211.839844 479.792969 161.785156 588.324219 161.007812 C 596.691406 160.945312 604.449219 161.207031 604.449219 161.207031 C 631.039062 162.035156 652.910156 165.40625 670.0625 168.523438 C 670.875 168.671875 671.671875 168.8125 672.464844 168.964844 C 676.171875 169.644531 679.652344 170.3125 682.898438 170.921875 C 720.765625 178.128906 761.023438 189.996094 800.917969 208.917969 C 852.460938 233.359375 894.945312 264.578125 903.78125 272.585938 C 947.507812 312.152344 979.34375 342.421875 1003.746094 371.171875 C 1003.746094 371.171875 1065.542969 443.988281 1106.601562 535.835938 C 1112.628906 549.320312 1114.617188 559.144531 1118.6875 578.757812 C 1123.574219 602.371094 1122.996094 613.246094 1117.335938 617.066406 " clip-rule="nonzero"/></clipPath><clipPath id="08db6abad6"><path d="M 0 0 L 1116 0 L 1116 458 L 0 458 Z M 0 0 " clip-rule="nonzero"/></clipPath><clipPath id="6feebb0048"><path d="M 1111.335938 456.066406 C 1109.566406 457.265625 1107.757812 457.457031 1106.75 457.554688 C 1090.054688 459.113281 1052.148438 455.707031 1043.359375 453.6875 C 1017.25 447.667969 1000.097656 430.675781 968.136719 398.1875 C 931.859375 361.300781 913.726562 342.867188 885.417969 312.304688 C 881.476562 308.027344 820.039062 242.410156 738.21875 188.667969 C 733.578125 185.621094 728.371094 182.191406 722.644531 178.492188 C 707.449219 168.6875 688.566406 157.039062 666.691406 145.816406 C 643.382812 133.828125 616.660156 122.324219 587.421875 114.046875 C 555.550781 105.019531 482.207031 88.585938 255.449219 140.777344 C 189.78125 155.890625 102.164062 178.863281 0.128906 213.960938 C 0.0703125 211.523438 0.046875 209.082031 0.046875 206.632812 C 0.046875 195.425781 0.558594 184.351562 1.558594 173.40625 L 1.558594 173.394531 C 108.03125 133.269531 184.253906 103.890625 343.355469 50.839844 C 343.355469 50.839844 473.792969 0.785156 582.324219 0.0078125 C 590.691406 -0.0546875 598.449219 0.207031 598.449219 0.207031 C 625.039062 1.035156 646.910156 4.40625 664.0625 7.523438 C 664.875 7.671875 665.671875 7.8125 666.464844 7.964844 C 670.171875 8.644531 673.652344 9.3125 676.898438 9.921875 C 714.765625 17.128906 755.023438 28.996094 794.917969 47.917969 C 846.460938 72.359375 888.945312 103.578125 897.78125 111.585938 C 941.507812 151.152344 973.34375 181.421875 997.746094 210.171875 C 997.746094 210.171875 1059.542969 282.988281 1100.601562 374.835938 C 1106.628906 388.320312 1108.617188 398.144531 1112.6875 417.757812 C 1117.574219 441.371094 1116.996094 452.246094 1111.335938 456.066406 " clip-rule="nonzero"/></clipPath><clipPath id="1be0e33336"><rect x="0" width="1116" y="0" height="458"/></clipPath><clipPath id="823b7a6b4b"><path d="M 5 160.230469 L 1123 160.230469 L 1123 620 L 5 620 Z M 5 160.230469 " clip-rule="nonzero"/></clipPath><clipPath id="07ab022582"><path d="M 1117.617188 617.476562 C 1115.738281 618.753906 1113.816406 618.945312 1112.796875 619.046875 C 1096.042969 620.613281 1058.085938 617.195312 1049.25 615.167969 C 1022.96875 609.109375 1005.714844 591.984375 973.789062 559.527344 C 973.6875 559.425781 973.597656 559.324219 973.496094 559.226562 C 973.398438 559.125 973.308594 559.027344 973.207031 558.9375 C 937.320312 522.4375 919.214844 504.035156 891.054688 473.636719 C 887.128906 469.367188 825.71875 403.789062 743.949219 350.078125 C 743.628906 349.871094 743.296875 349.648438 742.96875 349.441406 C 742.640625 349.230469 742.296875 349 741.957031 348.78125 C 737.832031 346.070312 733.292969 343.09375 728.375 339.914062 L 728.644531 339.492188 L 728.375 339.914062 C 713.1875 330.105469 694.316406 318.472656 672.464844 307.253906 C 649.171875 295.277344 622.480469 283.792969 593.28125 275.527344 C 561.523438 266.527344 488.269531 250.085938 261.558594 302.265625 L 261.449219 301.777344 L 261.558594 302.265625 C 195.902344 317.382812 108.300781 340.34375 6.289062 375.441406 L 5.636719 375.660156 L 5.617188 374.980469 C 5.558594 372.53125 5.539062 370.09375 5.539062 367.644531 L 6.039062 367.644531 L 5.546875 367.644531 C 5.546875 356.417969 6.058594 345.332031 7.058594 334.367188 L 7.558594 334.414062 L 7.058594 334.414062 L 7.058594 334.054688 L 7.378906 333.933594 C 15.984375 330.6875 24.402344 327.519531 32.679688 324.390625 C 40.6875 321.371094 48.5625 318.390625 56.371094 315.453125 C 140.222656 283.851562 215.40625 255.984375 349.207031 211.367188 L 349.367188 211.839844 L 349.1875 211.367188 C 349.175781 211.367188 479.691406 161.285156 588.332031 160.507812 C 596.710938 160.445312 604.476562 160.707031 604.476562 160.707031 L 604.457031 161.207031 L 604.476562 160.707031 C 631.097656 161.535156 653 164.914062 670.164062 168.035156 C 670.496094 168.09375 670.824219 168.152344 671.152344 168.214844 C 671.484375 168.273438 671.804688 168.332031 672.125 168.394531 C 672.273438 168.421875 672.414062 168.445312 672.5625 168.472656 L 672.472656 168.964844 L 672.5625 168.472656 C 675.050781 168.933594 677.441406 169.382812 679.722656 169.8125 C 680.839844 170.023438 681.941406 170.234375 683 170.433594 C 720.894531 177.652344 761.203125 189.527344 801.136719 208.46875 L 800.929688 208.917969 L 801.136719 208.46875 C 852.71875 232.929688 895.246094 264.171875 904.121094 272.21875 L 903.78125 272.585938 L 904.121094 272.21875 C 947.847656 311.785156 979.707031 342.074219 1004.136719 370.851562 C 1004.148438 370.863281 1065.984375 443.714844 1107.070312 535.632812 L 1106.609375 535.835938 L 1107.070312 535.632812 C 1113.039062 548.980469 1115.058594 558.757812 1119.007812 577.789062 C 1119.066406 578.078125 1119.125 578.371094 1119.1875 578.660156 C 1124.042969 602.128906 1123.625 613.4375 1117.625 617.484375 L 1117.347656 617.074219 L 1117.625 617.484375 M 1117.066406 616.65625 C 1122.382812 613.066406 1123.125 602.609375 1118.207031 578.867188 L 1118.695312 578.769531 L 1118.207031 578.867188 C 1118.144531 578.578125 1118.085938 578.289062 1118.027344 578 C 1114.078125 558.957031 1112.070312 549.269531 1106.152344 536.042969 C 1065.125 444.265625 1003.367188 371.492188 1003.375 371.503906 L 1003.757812 371.183594 L 1003.375 371.503906 C 978.996094 342.78125 947.1875 312.53125 903.460938 272.96875 C 894.664062 265 852.21875 233.800781 800.71875 209.378906 C 760.863281 190.476562 720.65625 178.621094 682.820312 171.421875 L 682.910156 170.933594 L 682.820312 171.421875 C 681.75 171.222656 680.652344 171.011719 679.53125 170.804688 C 677.25 170.375 674.871094 169.921875 672.382812 169.464844 C 672.242188 169.433594 672.09375 169.414062 671.953125 169.382812 C 671.632812 169.324219 671.3125 169.261719 670.984375 169.203125 C 670.652344 169.144531 670.324219 169.082031 669.996094 169.023438 L 670.085938 168.535156 L 669.996094 169.023438 C 652.851562 165.90625 631.007812 162.546875 604.449219 161.714844 C 604.449219 161.714844 596.699219 161.457031 588.34375 161.515625 L 588.34375 161.015625 L 588.34375 161.515625 C 479.910156 162.296875 349.558594 212.308594 349.558594 212.316406 L 349.539062 212.316406 C 215.753906 256.921875 140.582031 284.792969 56.742188 316.390625 C 48.933594 319.332031 41.054688 322.308594 33.050781 325.328125 C 24.773438 328.449219 16.363281 331.625 7.746094 334.875 L 7.566406 334.40625 L 8.066406 334.40625 L 8.066406 334.457031 C 7.066406 345.382812 6.558594 356.449219 6.558594 367.632812 C 6.558594 370.082031 6.578125 372.511719 6.636719 374.949219 L 6.136719 374.960938 L 5.976562 374.492188 C 108.03125 339.382812 195.671875 316.410156 261.347656 301.296875 C 488.160156 249.09375 561.59375 265.507812 593.570312 274.578125 L 593.429688 275.054688 L 593.570312 274.578125 C 622.851562 282.863281 649.601562 294.390625 672.933594 306.386719 L 672.703125 306.824219 L 672.933594 306.386719 C 694.824219 317.621094 713.730469 329.277344 728.921875 339.082031 C 733.851562 342.261719 738.390625 345.242188 742.519531 347.960938 C 742.859375 348.179688 743.199219 348.398438 743.527344 348.621094 C 743.859375 348.839844 744.179688 349.050781 744.507812 349.261719 L 744.238281 349.679688 L 744.507812 349.261719 C 826.378906 403.03125 887.847656 468.6875 891.796875 472.976562 L 891.425781 473.316406 L 891.796875 472.976562 C 919.945312 503.367188 938.039062 521.757812 973.925781 558.257812 C 974.027344 558.355469 974.117188 558.457031 974.21875 558.546875 C 974.316406 558.636719 974.40625 558.746094 974.507812 558.847656 L 974.148438 559.195312 L 974.507812 558.847656 C 1006.496094 591.363281 1023.550781 608.230469 1049.492188 614.207031 L 1049.378906 614.695312 L 1049.492188 614.207031 C 1058.226562 616.214844 1096.085938 619.613281 1112.71875 618.066406 L 1112.769531 618.566406 L 1112.71875 618.066406 C 1113.71875 617.964844 1115.417969 617.785156 1117.078125 616.65625 Z M 1117.066406 616.65625 " clip-rule="nonzero"/></clipPath><clipPath id="2f0f94683d"><path d="M 0.488281 0.316406 L 1118 0.316406 L 1118 460 L 0.488281 460 Z M 0.488281 0.316406 " clip-rule="nonzero"/></clipPath><clipPath id="ebc42a97e1"><path d="M 1112.617188 457.476562 C 1110.738281 458.753906 1108.816406 458.945312 1107.796875 459.046875 C 1091.042969 460.613281 1053.085938 457.195312 1044.25 455.167969 C 1017.96875 449.109375 1000.714844 431.984375 968.789062 399.527344 C 968.6875 399.425781 968.597656 399.324219 968.496094 399.226562 C 968.398438 399.125 968.308594 399.027344 968.207031 398.9375 C 932.320312 362.4375 914.214844 344.035156 886.054688 313.636719 C 882.128906 309.367188 820.71875 243.789062 738.949219 190.078125 C 738.628906 189.871094 738.296875 189.648438 737.96875 189.441406 C 737.640625 189.230469 737.296875 189 736.957031 188.78125 C 732.832031 186.070312 728.292969 183.09375 723.375 179.914062 L 723.644531 179.492188 L 723.375 179.914062 C 708.1875 170.105469 689.316406 158.472656 667.464844 147.253906 C 644.171875 135.277344 617.480469 123.792969 588.28125 115.527344 C 556.523438 106.527344 483.269531 90.085938 256.558594 142.265625 L 256.449219 141.777344 L 256.558594 142.265625 C 190.902344 157.382812 103.300781 180.34375 1.289062 215.441406 L 0.636719 215.660156 L 0.617188 214.980469 C 0.558594 212.53125 0.539062 210.09375 0.539062 207.644531 L 1.039062 207.644531 L 0.546875 207.644531 C 0.546875 196.417969 1.058594 185.332031 2.058594 174.367188 L 2.558594 174.414062 L 2.058594 174.414062 L 2.058594 174.054688 L 2.378906 173.933594 C 10.984375 170.6875 19.402344 167.519531 27.679688 164.390625 C 35.6875 161.371094 43.5625 158.390625 51.371094 155.453125 C 135.222656 123.851562 210.40625 95.984375 344.207031 51.367188 L 344.367188 51.839844 L 344.1875 51.367188 C 344.175781 51.367188 474.691406 1.285156 583.332031 0.507812 C 591.710938 0.445312 599.476562 0.707031 599.476562 0.707031 L 599.457031 1.207031 L 599.476562 0.707031 C 626.097656 1.535156 648 4.914062 665.164062 8.035156 C 665.496094 8.09375 665.824219 8.152344 666.152344 8.214844 C 666.484375 8.273438 666.804688 8.332031 667.125 8.394531 C 667.273438 8.421875 667.414062 8.445312 667.5625 8.472656 L 667.472656 8.964844 L 667.5625 8.472656 C 670.050781 8.933594 672.441406 9.382812 674.722656 9.8125 C 675.839844 10.023438 676.941406 10.234375 678 10.433594 C 715.894531 17.652344 756.203125 29.527344 796.136719 48.46875 L 795.929688 48.917969 L 796.136719 48.46875 C 847.71875 72.929688 890.246094 104.171875 899.121094 112.21875 L 898.78125 112.585938 L 899.121094 112.21875 C 942.847656 151.785156 974.707031 182.074219 999.136719 210.851562 C 999.148438 210.863281 1060.984375 283.714844 1102.070312 375.632812 L 1101.609375 375.835938 L 1102.070312 375.632812 C 1108.039062 388.980469 1110.058594 398.757812 1114.007812 417.789062 C 1114.066406 418.078125 1114.125 418.371094 1114.1875 418.660156 C 1119.042969 442.128906 1118.625 453.4375 1112.625 457.484375 L 1112.347656 457.074219 L 1112.625 457.484375 M 1112.066406 456.65625 C 1117.382812 453.066406 1118.125 442.609375 1113.207031 418.867188 L 1113.695312 418.769531 L 1113.207031 418.867188 C 1113.144531 418.578125 1113.085938 418.289062 1113.027344 418 C 1109.078125 398.957031 1107.070312 389.269531 1101.152344 376.042969 C 1060.125 284.265625 998.367188 211.492188 998.375 211.503906 L 998.757812 211.183594 L 998.375 211.503906 C 973.996094 182.78125 942.1875 152.53125 898.460938 112.96875 C 889.664062 105 847.21875 73.800781 795.71875 49.378906 C 755.863281 30.476562 715.65625 18.621094 677.820312 11.421875 L 677.910156 10.933594 L 677.820312 11.421875 C 676.75 11.222656 675.652344 11.011719 674.53125 10.804688 C 672.25 10.375 669.871094 9.921875 667.382812 9.464844 C 667.242188 9.433594 667.09375 9.414062 666.953125 9.382812 C 666.632812 9.324219 666.3125 9.261719 665.984375 9.203125 C 665.652344 9.144531 665.324219 9.082031 664.996094 9.023438 L 665.085938 8.535156 L 664.996094 9.023438 C 647.851562 5.90625 626.007812 2.546875 599.449219 1.714844 C 599.449219 1.714844 591.699219 1.457031 583.34375 1.515625 L 583.34375 1.015625 L 583.34375 1.515625 C 474.910156 2.296875 344.558594 52.308594 344.558594 52.316406 L 344.539062 52.316406 C 210.753906 96.921875 135.582031 124.792969 51.742188 156.390625 C 43.933594 159.332031 36.054688 162.308594 28.050781 165.328125 C 19.773438 168.449219 11.363281 171.625 2.746094 174.875 L 2.566406 174.40625 L 3.066406 174.40625 L 3.066406 174.457031 C 2.066406 185.382812 1.558594 196.449219 1.558594 207.632812 C 1.558594 210.082031 1.578125 212.511719 1.636719 214.949219 L 1.136719 214.960938 L 0.976562 214.492188 C 103.03125 179.382812 190.671875 156.410156 256.347656 141.296875 C 483.160156 89.09375 556.59375 105.507812 588.570312 114.578125 L 588.429688 115.054688 L 588.570312 114.578125 C 617.851562 122.863281 644.601562 134.390625 667.933594 146.386719 L 667.703125 146.824219 L 667.933594 146.386719 C 689.824219 157.621094 708.730469 169.277344 723.921875 179.082031 C 728.851562 182.261719 733.390625 185.242188 737.519531 187.960938 C 737.859375 188.179688 738.199219 188.398438 738.527344 188.621094 C 738.859375 188.839844 739.179688 189.050781 739.507812 189.261719 L 739.238281 189.679688 L 739.507812 189.261719 C 821.378906 243.03125 882.847656 308.6875 886.796875 312.976562 L 886.425781 313.316406 L 886.796875 312.976562 C 914.945312 343.367188 933.039062 361.757812 968.925781 398.257812 C 969.027344 398.355469 969.117188 398.457031 969.21875 398.546875 C 969.316406 398.636719 969.40625 398.746094 969.507812 398.847656 L 969.148438 399.195312 L 969.507812 398.847656 C 1001.496094 431.363281 1018.550781 448.230469 1044.492188 454.207031 L 1044.378906 454.695312 L 1044.492188 454.207031 C 1053.226562 456.214844 1091.085938 459.613281 1107.71875 458.066406 L 1107.769531 458.566406 L 1107.71875 458.066406 C 1108.71875 457.964844 1110.417969 457.785156 1112.078125 456.65625 Z M 1112.066406 456.65625 " clip-rule="nonzero"/></clipPath><clipPath id="4a461fe5cd"><rect x="0" width="1118" y="0" height="460"/></clipPath><clipPath id="bb6572c6cc"><path d="M 8.546875 328.152344 L 1117 328.152344 L 1117 691.984375 L 8.546875 691.984375 Z M 8.546875 328.152344 " clip-rule="nonzero"/></clipPath><clipPath id="45885d86a3"><path d="M 1041.394531 686.292969 C 1027.039062 690.339844 981.554688 701.046875 892.15625 666.96875 C 797.820312 630.992188 724.046875 570.59375 686.128906 539.953125 C 683.289062 537.652344 680.660156 535.535156 678.230469 533.59375 C 668.835938 526.117188 659.707031 518.609375 649.910156 510.914062 C 632.476562 497.21875 612.925781 482.902344 586.113281 466.988281 C 581.933594 464.507812 555.125 448.695312 529.214844 437.128906 C 459.738281 406.128906 389.433594 402.550781 353.394531 403 C 249.433594 404.289062 49.042969 443.335938 15.355469 449.523438 C 12.515625 437.257812 10.308594 424.753906 8.757812 412.046875 C 9.796875 411.71875 10.667969 411.519531 11.226562 411.398438 C 114.46875 389.027344 216.535156 361.175781 320.175781 340.742188 C 325.125 339.761719 342.21875 336.335938 365.601562 333.296875 C 377.796875 331.714844 391.203125 330.335938 406.175781 329.308594 C 430.097656 327.675781 457.988281 328.476562 480.351562 330.15625 C 539 334.574219 593.921875 342.433594 650.660156 387.304688 L 721.476562 444.796875 L 896.464844 586.875 C 906.042969 592.914062 970.109375 632.789062 1024.980469 643.40625 C 1035.765625 645.496094 1049.3125 648.113281 1067.605469 647.675781 C 1097.601562 646.933594 1114.996094 638.578125 1116.367188 641.597656 C 1118.445312 646.117188 1083.609375 674.367188 1041.394531 686.292969 " clip-rule="nonzero"/></clipPath><clipPath id="4484f8e854"><path d="M 0.609375 0.152344 L 1109 0.152344 L 1109 363.984375 L 0.609375 363.984375 Z M 0.609375 0.152344 " clip-rule="nonzero"/></clipPath><clipPath id="a2da3d445f"><path d="M 1033.394531 358.292969 C 1019.039062 362.339844 973.554688 373.046875 884.15625 338.96875 C 789.820312 302.992188 716.046875 242.59375 678.128906 211.953125 C 675.289062 209.652344 672.660156 207.535156 670.230469 205.59375 C 660.835938 198.117188 651.707031 190.609375 641.910156 182.914062 C 624.476562 169.21875 604.925781 154.902344 578.113281 138.988281 C 573.933594 136.507812 547.125 120.695312 521.214844 109.128906 C 451.738281 78.128906 381.433594 74.550781 345.394531 75 C 241.433594 76.289062 41.042969 115.335938 7.355469 121.523438 C 4.515625 109.257812 2.308594 96.753906 0.757812 84.046875 C 1.796875 83.71875 2.667969 83.519531 3.226562 83.398438 C 106.46875 61.027344 208.535156 33.175781 312.175781 12.742188 C 317.125 11.761719 334.21875 8.335938 357.601562 5.296875 C 369.796875 3.714844 383.203125 2.335938 398.175781 1.308594 C 422.097656 -0.324219 449.988281 0.476562 472.351562 2.15625 C 531 6.574219 585.921875 14.433594 642.660156 59.304688 L 713.476562 116.796875 L 888.464844 258.875 C 898.042969 264.914062 962.109375 304.789062 1016.980469 315.40625 C 1027.765625 317.496094 1041.3125 320.113281 1059.605469 319.675781 C 1089.601562 318.933594 1106.996094 310.578125 1108.367188 313.597656 C 1110.445312 318.117188 1075.609375 346.367188 1033.394531 358.292969 " clip-rule="nonzero"/></clipPath><clipPath id="9f3c480755"><rect x="0" width="1109" y="0" height="364"/></clipPath><clipPath id="87ad6293f9"><path d="M 8 327.152344 L 1117 327.152344 L 1117 691.984375 L 8 691.984375 Z M 8 327.152344 " clip-rule="nonzero"/></clipPath><clipPath id="02a2a119ff"><path d="M 1041.535156 686.769531 C 1027.078125 690.847656 981.484375 701.546875 891.984375 667.4375 C 799.308594 632.089844 726.464844 573.199219 687.957031 542.070312 C 687.238281 541.480469 686.519531 540.914062 685.828125 540.34375 C 682.988281 538.042969 680.359375 535.925781 677.929688 533.984375 L 678.242188 533.59375 L 677.929688 533.984375 C 674.03125 530.886719 670.195312 527.785156 666.324219 524.667969 C 662.417969 521.519531 658.488281 518.351562 654.46875 515.152344 C 652.871094 513.871094 651.25 512.59375 649.613281 511.3125 L 649.921875 510.921875 L 649.613281 511.3125 C 632.1875 497.628906 612.65625 483.324219 585.863281 467.429688 L 586.125 467 L 585.863281 467.429688 C 581.683594 464.949219 554.894531 449.144531 529.015625 437.597656 L 529.214844 437.140625 L 529.015625 437.597656 C 459.628906 406.640625 389.414062 403.0625 353.40625 403.511719 C 257.429688 404.699219 79.164062 438.097656 25.953125 448.066406 C 21.5625 448.886719 18.023438 449.554688 15.445312 450.023438 L 14.976562 450.113281 L 14.867188 449.644531 C 12.027344 437.359375 9.808594 424.84375 8.257812 412.117188 L 8.207031 411.707031 L 8.609375 411.578125 C 9.667969 411.238281 10.558594 411.039062 11.125 410.917969 L 11.226562 411.40625 L 11.117188 410.917969 C 54.980469 401.410156 98.636719 390.914062 142.289062 380.417969 C 185.945312 369.921875 229.597656 359.425781 273.472656 349.917969 C 288.980469 346.5625 304.503906 343.320312 320.066406 340.253906 L 320.167969 340.742188 L 320.066406 340.253906 C 320.1875 340.234375 320.328125 340.203125 320.457031 340.171875 C 320.617188 340.144531 320.777344 340.113281 320.957031 340.074219 C 326.855469 338.902344 343.371094 335.675781 365.523438 332.796875 C 377.726562 331.214844 391.140625 329.835938 406.128906 328.808594 C 430.078125 327.179688 458 327.976562 480.371094 329.65625 C 539.050781 334.074219 594.089844 341.941406 650.949219 386.917969 L 721.765625 444.40625 L 896.785156 586.488281 L 896.464844 586.875 L 896.734375 586.457031 C 906.320312 592.503906 970.308594 632.320312 1025.078125 642.917969 C 1035.855469 645.003906 1049.359375 647.613281 1067.59375 647.175781 L 1067.605469 647.675781 L 1067.59375 647.175781 C 1084.726562 646.753906 1097.734375 643.835938 1106 641.988281 C 1109.808594 641.136719 1112.679688 640.488281 1114.457031 640.449219 C 1115.476562 640.417969 1116.457031 640.578125 1116.828125 641.398438 L 1116.367188 641.605469 L 1116.816406 641.398438 C 1118.695312 645.476562 1097.214844 663.527344 1068.503906 676.746094 C 1060.105469 680.613281 1051 684.101562 1041.535156 686.78125 M 1041.261719 685.820312 L 1041.402344 686.300781 L 1041.261719 685.820312 C 1050.679688 683.164062 1059.738281 679.683594 1068.09375 675.835938 C 1097.492188 662.308594 1117.265625 644.746094 1115.917969 641.816406 C 1115.847656 641.65625 1115.546875 641.425781 1114.488281 641.457031 C 1112.839844 641.496094 1110.089844 642.105469 1106.230469 642.976562 C 1097.953125 644.824219 1084.867188 647.765625 1067.632812 648.183594 C 1049.28125 648.625 1035.695312 645.996094 1024.898438 643.90625 L 1025 643.417969 L 1024.910156 643.90625 C 969.929688 633.269531 905.792969 593.34375 896.222656 587.304688 L 896.195312 587.285156 L 896.175781 587.265625 L 721.15625 445.1875 L 721.476562 444.796875 L 721.15625 445.1875 L 650.339844 387.695312 L 650.660156 387.304688 L 650.351562 387.695312 C 593.730469 342.921875 538.941406 335.066406 480.3125 330.65625 L 480.351562 330.15625 L 480.3125 330.65625 C 457.960938 328.976562 430.097656 328.175781 406.207031 329.808594 L 406.175781 329.308594 L 406.207031 329.808594 C 391.242188 330.835938 377.847656 332.214844 365.660156 333.796875 L 365.601562 333.296875 L 365.660156 333.796875 C 343.539062 336.675781 327.046875 339.894531 321.15625 341.0625 C 320.988281 341.09375 320.816406 341.132812 320.65625 341.164062 C 320.515625 341.191406 320.386719 341.210938 320.269531 341.242188 C 304.714844 344.3125 289.1875 347.539062 273.683594 350.898438 C 229.828125 360.40625 186.175781 370.890625 142.519531 381.390625 C 98.867188 391.886719 55.199219 402.382812 11.316406 411.886719 C 10.765625 412.007812 9.917969 412.199219 8.898438 412.527344 L 8.746094 412.046875 L 9.246094 411.988281 C 10.796875 424.671875 12.996094 437.167969 15.835938 449.414062 L 15.34375 449.523438 L 15.253906 449.035156 C 17.824219 448.566406 21.363281 447.90625 25.75 447.074219 C 78.921875 437.109375 257.289062 403.691406 353.375 402.5 L 353.386719 403 L 353.375 402.5 C 389.441406 402.050781 459.839844 405.628906 529.402344 436.667969 C 555.34375 448.246094 582.175781 464.078125 586.355469 466.558594 C 613.183594 482.484375 632.757812 496.816406 650.203125 510.523438 C 651.839844 511.8125 653.460938 513.09375 655.070312 514.371094 C 659.089844 517.570312 663.015625 520.738281 666.925781 523.886719 C 670.792969 527.007812 674.632812 530.105469 678.53125 533.207031 C 680.960938 535.144531 683.589844 537.265625 686.429688 539.5625 L 686.117188 539.953125 L 686.429688 539.5625 C 687.128906 540.132812 687.839844 540.703125 688.558594 541.292969 C 727.0625 572.421875 799.796875 631.21875 892.316406 666.507812 L 892.136719 666.976562 L 892.316406 666.507812 C 981.613281 700.546875 1026.988281 689.839844 1041.242188 685.820312 Z M 1041.261719 685.820312 " clip-rule="nonzero"/></clipPath><clipPath id="3510d43a4c"><path d="M 0.128906 0.152344 L 1109 0.152344 L 1109 364.984375 L 0.128906 364.984375 Z M 0.128906 0.152344 " clip-rule="nonzero"/></clipPath><clipPath id="baa23192cb"><path d="M 1033.535156 359.769531 C 1019.078125 363.847656 973.484375 374.546875 883.984375 340.4375 C 791.308594 305.089844 718.464844 246.199219 679.957031 215.070312 C 679.238281 214.480469 678.519531 213.914062 677.828125 213.34375 C 674.988281 211.042969 672.359375 208.925781 669.929688 206.984375 L 670.242188 206.59375 L 669.929688 206.984375 C 666.03125 203.886719 662.195312 200.785156 658.324219 197.667969 C 654.417969 194.519531 650.488281 191.351562 646.46875 188.152344 C 644.871094 186.871094 643.25 185.59375 641.613281 184.3125 L 641.921875 183.921875 L 641.613281 184.3125 C 624.1875 170.628906 604.65625 156.324219 577.863281 140.429688 L 578.125 140 L 577.863281 140.429688 C 573.683594 137.949219 546.894531 122.144531 521.015625 110.597656 L 521.214844 110.140625 L 521.015625 110.597656 C 451.628906 79.640625 381.414062 76.0625 345.40625 76.511719 C 249.429688 77.699219 71.164062 111.097656 17.953125 121.066406 C 13.5625 121.886719 10.023438 122.554688 7.445312 123.023438 L 6.976562 123.113281 L 6.867188 122.644531 C 4.027344 110.359375 1.808594 97.84375 0.257812 85.117188 L 0.207031 84.707031 L 0.609375 84.578125 C 1.667969 84.238281 2.558594 84.039062 3.125 83.917969 L 3.226562 84.40625 L 3.117188 83.917969 C 46.980469 74.410156 90.636719 63.914062 134.289062 53.417969 C 177.945312 42.921875 221.597656 32.425781 265.472656 22.917969 C 280.980469 19.5625 296.503906 16.320312 312.066406 13.253906 L 312.167969 13.742188 L 312.066406 13.253906 C 312.1875 13.234375 312.328125 13.203125 312.457031 13.171875 C 312.617188 13.144531 312.777344 13.113281 312.957031 13.074219 C 318.855469 11.902344 335.371094 8.675781 357.523438 5.796875 C 369.726562 4.214844 383.140625 2.835938 398.128906 1.808594 C 422.078125 0.179688 450 0.976562 472.371094 2.65625 C 531.050781 7.074219 586.089844 14.941406 642.949219 59.917969 L 713.765625 117.40625 L 888.785156 259.488281 L 888.464844 259.875 L 888.734375 259.457031 C 898.320312 265.503906 962.308594 305.320312 1017.078125 315.917969 C 1027.855469 318.003906 1041.359375 320.613281 1059.59375 320.175781 L 1059.605469 320.675781 L 1059.59375 320.175781 C 1076.726562 319.753906 1089.734375 316.835938 1098 314.988281 C 1101.808594 314.136719 1104.679688 313.488281 1106.457031 313.449219 C 1107.476562 313.417969 1108.457031 313.578125 1108.828125 314.398438 L 1108.367188 314.605469 L 1108.816406 314.398438 C 1110.695312 318.476562 1089.214844 336.527344 1060.503906 349.746094 C 1052.105469 353.613281 1043 357.101562 1033.535156 359.78125 M 1033.261719 358.820312 L 1033.402344 359.300781 L 1033.261719 358.820312 C 1042.679688 356.164062 1051.738281 352.683594 1060.09375 348.835938 C 1089.492188 335.308594 1109.265625 317.746094 1107.917969 314.816406 C 1107.847656 314.65625 1107.546875 314.425781 1106.488281 314.457031 C 1104.839844 314.496094 1102.089844 315.105469 1098.230469 315.976562 C 1089.953125 317.824219 1076.867188 320.765625 1059.632812 321.183594 C 1041.28125 321.625 1027.695312 318.996094 1016.898438 316.90625 L 1017 316.417969 L 1016.910156 316.90625 C 961.929688 306.269531 897.792969 266.34375 888.222656 260.304688 L 888.195312 260.285156 L 888.175781 260.265625 L 713.15625 118.1875 L 713.476562 117.796875 L 713.15625 118.1875 L 642.339844 60.695312 L 642.660156 60.304688 L 642.351562 60.695312 C 585.730469 15.921875 530.941406 8.066406 472.3125 3.65625 L 472.351562 3.15625 L 472.3125 3.65625 C 449.960938 1.976562 422.097656 1.175781 398.207031 2.808594 L 398.175781 2.308594 L 398.207031 2.808594 C 383.242188 3.835938 369.847656 5.214844 357.660156 6.796875 L 357.601562 6.296875 L 357.660156 6.796875 C 335.539062 9.675781 319.046875 12.894531 313.15625 14.0625 C 312.988281 14.09375 312.816406 14.132812 312.65625 14.164062 C 312.515625 14.191406 312.386719 14.210938 312.269531 14.242188 C 296.714844 17.3125 281.1875 20.539062 265.683594 23.898438 C 221.828125 33.40625 178.175781 43.890625 134.519531 54.390625 C 90.867188 64.886719 47.199219 75.382812 3.316406 84.886719 C 2.765625 85.007812 1.917969 85.199219 0.898438 85.527344 L 0.746094 85.046875 L 1.246094 84.988281 C 2.796875 97.671875 4.996094 110.167969 7.835938 122.414062 L 7.34375 122.523438 L 7.253906 122.035156 C 9.824219 121.566406 13.363281 120.90625 17.75 120.074219 C 70.921875 110.109375 249.289062 76.691406 345.375 75.5 L 345.386719 76 L 345.375 75.5 C 381.441406 75.050781 451.839844 78.628906 521.402344 109.667969 C 547.34375 121.246094 574.175781 137.078125 578.355469 139.558594 C 605.183594 155.484375 624.757812 169.816406 642.203125 183.523438 C 643.839844 184.8125 645.460938 186.09375 647.070312 187.371094 C 651.089844 190.570312 655.015625 193.738281 658.925781 196.886719 C 662.792969 200.007812 666.632812 203.105469 670.53125 206.207031 C 672.960938 208.144531 675.589844 210.265625 678.429688 212.5625 L 678.117188 212.953125 L 678.429688 212.5625 C 679.128906 213.132812 679.839844 213.703125 680.558594 214.292969 C 719.0625 245.421875 791.796875 304.21875 884.316406 339.507812 L 884.136719 339.976562 L 884.316406 339.507812 C 973.613281 373.546875 1018.988281 362.839844 1033.242188 358.820312 Z M 1033.261719 358.820312 " clip-rule="nonzero"/></clipPath><clipPath id="c30ce95c46"><rect x="0" width="1109" y="0" height="365"/></clipPath><clipPath id="5c655ee27e"><path d="M 24 455 L 598 455 L 598 550 L 24 550 Z M 24 455 " clip-rule="nonzero"/></clipPath><clipPath id="1b49117878"><path d="M 597.75 523.207031 C 588.691406 528.785156 575.019531 536.152344 557.414062 541.691406 C 490.777344 562.65625 431.828125 537.171875 381.867188 522.1875 C 335.683594 508.332031 269.277344 495.070312 181.996094 498.707031 L 31.558594 501.328125 C 28.890625 494.660156 26.429688 487.890625 24.183594 481.035156 C 111.109375 470.136719 184.625 463.847656 240.234375 460.019531 C 364.882812 451.445312 405.507812 454.84375 444.082031 462.789062 C 512.28125 476.875 564.589844 503.324219 597.75 523.207031 " clip-rule="nonzero"/></clipPath><clipPath id="022894c2a2"><path d="M 0 0 L 573.945312 0 L 573.945312 95 L 0 95 Z M 0 0 " clip-rule="nonzero"/></clipPath><clipPath id="ec38e521b8"><path d="M 573.75 68.207031 C 564.691406 73.785156 551.019531 81.152344 533.414062 86.691406 C 466.777344 107.65625 407.828125 82.171875 357.867188 67.1875 C 311.683594 53.332031 245.277344 40.070312 157.996094 43.707031 L 7.558594 46.328125 C 4.890625 39.660156 2.429688 32.890625 0.183594 26.035156 C 87.109375 15.136719 160.625 8.847656 216.234375 5.019531 C 340.882812 -3.554688 381.507812 -0.15625 420.082031 7.789062 C 488.28125 21.875 540.589844 48.324219 573.75 68.207031 " clip-rule="nonzero"/></clipPath><clipPath id="35016844f9"><rect x="0" width="574" y="0" height="95"/></clipPath><clipPath id="027893c535"><path d="M 12 5.300781 L 599 5.300781 L 599 300.164062 L 12 300.164062 Z M 12 5.300781 " clip-rule="nonzero"/></clipPath><clipPath id="a092e4d12f"><path d="M 598.359375 88.683594 C 558.492188 88.171875 517.15625 90.070312 474.933594 94.589844 C 262.847656 117.300781 86.710938 200.011719 12.347656 300.117188 C 43.964844 132.546875 191.125 5.800781 367.878906 5.800781 C 455.449219 5.800781 535.761719 36.910156 598.359375 88.683594 " clip-rule="nonzero"/></clipPath><clipPath id="89cce74cc0"><path d="M 0.207031 0.78125 L 586.425781 0.78125 L 586.425781 295.164062 L 0.207031 295.164062 Z M 0.207031 0.78125 " clip-rule="nonzero"/></clipPath><clipPath id="d8a5a5e8de"><path d="M 586.359375 83.683594 C 546.492188 83.171875 505.15625 85.070312 462.933594 89.589844 C 250.847656 112.300781 74.710938 195.011719 0.347656 295.117188 C 31.964844 127.546875 179.125 0.800781 355.878906 0.800781 C 443.449219 0.800781 523.761719 31.910156 586.359375 83.683594 " clip-rule="nonzero"/></clipPath><clipPath id="2ebd332bd8"><rect x="0" width="587" y="0" height="296"/></clipPath><clipPath id="e3d2d6a1b8"><path d="M 11 5.300781 L 600 5.300781 L 600 302.164062 L 11 302.164062 Z M 11 5.300781 " clip-rule="nonzero"/></clipPath><clipPath id="73a97630a8"><path d="M 598.347656 89.183594 C 558.503906 88.671875 517.1875 90.570312 474.984375 95.089844 L 474.933594 94.589844 L 474.984375 95.089844 C 262.96875 117.792969 86.988281 200.472656 12.746094 300.417969 L 11.445312 302.15625 L 11.847656 300.027344 C 43.515625 132.226562 190.882812 5.300781 367.878906 5.300781 L 367.878906 5.800781 L 367.878906 5.300781 C 455.570312 5.300781 535.992188 36.449219 598.679688 88.292969 L 599.769531 89.191406 L 598.347656 89.171875 M 598.359375 88.171875 L 598.347656 88.671875 L 598.03125 89.0625 C 535.53125 37.371094 455.328125 6.300781 367.878906 6.300781 C 191.363281 6.300781 44.414062 132.867188 12.835938 300.207031 L 12.347656 300.117188 L 11.945312 299.816406 C 86.429688 199.554688 262.738281 116.8125 474.882812 94.089844 C 517.128906 89.570312 558.484375 87.671875 598.371094 88.183594 Z M 598.359375 88.171875 " clip-rule="nonzero"/></clipPath><clipPath id="1064823043"><path d="M 0.25 0.300781 L 588.863281 0.300781 L 588.863281 297.164062 L 0.25 297.164062 Z M 0.25 0.300781 " clip-rule="nonzero"/></clipPath><clipPath id="f5232e3429"><path d="M 587.347656 84.183594 C 547.503906 83.671875 506.1875 85.570312 463.984375 90.089844 L 463.933594 89.589844 L 463.984375 90.089844 C 251.96875 112.792969 75.988281 195.472656 1.746094 295.417969 L 0.445312 297.15625 L 0.847656 295.027344 C 32.515625 127.226562 179.882812 0.300781 356.878906 0.300781 L 356.878906 0.800781 L 356.878906 0.300781 C 444.570312 0.300781 524.992188 31.449219 587.679688 83.292969 L 588.769531 84.191406 L 587.347656 84.171875 M 587.359375 83.171875 L 587.347656 83.671875 L 587.03125 84.0625 C 524.53125 32.371094 444.328125 1.300781 356.878906 1.300781 C 180.363281 1.300781 33.414062 127.867188 1.835938 295.207031 L 1.347656 295.117188 L 0.945312 294.816406 C 75.429688 194.554688 251.738281 111.8125 463.882812 89.089844 C 506.128906 84.570312 547.484375 82.671875 587.371094 83.183594 Z M 587.359375 83.171875 " clip-rule="nonzero"/></clipPath><clipPath id="b4df9c6681"><rect x="0" width="589" y="0" height="298"/></clipPath><clipPath id="977ec05b82"><path d="M 46 533.058594 L 635 533.058594 L 635 729.96875 L 46 729.96875 Z M 46 533.058594 " clip-rule="nonzero"/></clipPath><clipPath id="02c76ff6ab"><path d="M 634.296875 612.476562 C 568.171875 684.402344 473.292969 729.476562 367.878906 729.476562 C 227.96875 729.476562 106.59375 650.054688 46.402344 533.835938 C 143.289062 610.566406 327.246094 650.464844 532.113281 628.523438 C 567.261719 624.753906 601.417969 619.34375 634.296875 612.476562 " clip-rule="nonzero"/></clipPath><clipPath id="2feb6d1692"><path d="M 0.28125 0.6875 L 588.417969 0.6875 L 588.417969 196.496094 L 0.28125 196.496094 Z M 0.28125 0.6875 " clip-rule="nonzero"/></clipPath><clipPath id="10ce97a456"><path d="M 588.296875 79.476562 C 522.171875 151.402344 427.292969 196.476562 321.878906 196.476562 C 181.96875 196.476562 60.59375 117.054688 0.402344 0.835938 C 97.289062 77.566406 281.246094 117.464844 486.113281 95.523438 C 521.261719 91.753906 555.417969 86.34375 588.296875 79.476562 " clip-rule="nonzero"/></clipPath><clipPath id="32c0858d49"><rect x="0" width="589" y="0" height="197"/></clipPath><clipPath id="6baad0bb9f"><path d="M 44.53125 531.058594 L 636 531.058594 L 636 730 L 44.53125 730 Z M 44.53125 531.058594 " clip-rule="nonzero"/></clipPath><clipPath id="7272e27f11"><path d="M 634.667969 612.816406 C 568.449219 684.839844 473.445312 729.976562 367.878906 729.976562 L 367.878906 729.476562 L 367.878906 729.976562 C 227.78125 729.976562 106.234375 650.445312 45.964844 534.066406 L 44.894531 531.996094 L 46.722656 533.445312 C 143.46875 610.066406 327.265625 649.964844 532.074219 628.023438 L 532.121094 628.523438 L 532.074219 628.023438 C 567.199219 624.253906 601.347656 618.84375 634.207031 611.988281 L 635.726562 611.667969 L 634.675781 612.816406 M 633.9375 612.136719 L 634.308594 612.476562 L 634.40625 612.96875 C 601.507812 619.835938 567.339844 625.253906 532.171875 629.019531 C 327.246094 650.972656 143.128906 611.078125 46.105469 534.226562 L 46.414062 533.835938 L 46.855469 533.605469 C 106.960938 649.664062 228.171875 728.976562 367.890625 728.976562 C 473.152344 728.976562 567.898438 683.960938 633.9375 612.136719 Z M 633.9375 612.136719 " clip-rule="nonzero"/></clipPath><clipPath id="b1534f3b6f"><path d="M 0.84375 0.769531 L 591.859375 0.769531 L 591.859375 199 L 0.84375 199 Z M 0.84375 0.769531 " clip-rule="nonzero"/></clipPath><clipPath id="ac4480602f"><path d="M 590.667969 81.816406 C 524.449219 153.839844 429.445312 198.976562 323.878906 198.976562 L 323.878906 198.476562 L 323.878906 198.976562 C 183.78125 198.976562 62.234375 119.445312 1.964844 3.066406 L 0.894531 0.996094 L 2.722656 2.445312 C 99.46875 79.066406 283.265625 118.964844 488.074219 97.023438 L 488.121094 97.523438 L 488.074219 97.023438 C 523.199219 93.253906 557.347656 87.84375 590.207031 80.988281 L 591.726562 80.667969 L 590.675781 81.816406 M 589.9375 81.136719 L 590.308594 81.476562 L 590.40625 81.96875 C 557.507812 88.835938 523.339844 94.253906 488.171875 98.019531 C 283.246094 119.972656 99.128906 80.078125 2.105469 3.226562 L 2.414062 2.835938 L 2.855469 2.605469 C 62.960938 118.664062 184.171875 197.976562 323.890625 197.976562 C 429.152344 197.976562 523.898438 152.960938 589.9375 81.136719 Z M 589.9375 81.136719 " clip-rule="nonzero"/></clipPath><clipPath id="dfe3cbb570"><rect x="0" width="592" y="0" height="199"/></clipPath><clipPath id="0bdc28f09b"><rect x="0" width="1130" y="0" height="736"/></clipPath></defs><g transform="matrix(1, 0, 0, 1, 168, 322)"><g clip-path="url(#0bdc28f09b)"><g clip-path="url(#444329e1fd)"><g clip-path="url(#1c91b9864c)"><g transform="matrix(1, 0, 0, 1, 6, 161)"><g clip-path="url(#1be0e33336)"><g clip-path="url(#08db6abad6)"><g clip-path="url(#6feebb0048)"><rect x="-689.697" width="2448.144" fill="#ffffff" y="-998.696977" height="2448.143889" fill-opacity="1"/></g></g></g></g></g></g><g clip-path="url(#823b7a6b4b)"><g clip-path="url(#07ab022582)"><g transform="matrix(1, 0, 0, 1, 5, 160)"><g clip-path="url(#4a461fe5cd)"><g clip-path="url(#2f0f94683d)"><g clip-path="url(#ebc42a97e1)"><rect x="-688.697" width="2448.144" fill="#ffffff" y="-997.696977" height="2448.143889" fill-opacity="1"/></g></g></g></g></g></g><g clip-path="url(#bb6572c6cc)"><g clip-path="url(#45885d86a3)"><g transform="matrix(1, 0, 0, 1, 8, 328)"><g clip-path="url(#9f3c480755)"><g clip-path="url(#4484f8e854)"><g clip-path="url(#a2da3d445f)"><rect x="-691.697" width="2448.144" fill="#ffffff" y="-1165.696977" height="2448.143889" fill-opacity="1"/></g></g></g></g></g></g><g clip-path="url(#87ad6293f9)"><g clip-path="url(#02a2a119ff)"><g transform="matrix(1, 0, 0, 1, 8, 327)"><g clip-path="url(#c30ce95c46)"><g clip-path="url(#3510d43a4c)"><g clip-path="url(#baa23192cb)"><rect x="-691.697" width="2448.144" fill="#ffffff" y="-1164.696977" height="2448.143889" fill-opacity="1"/></g></g></g></g></g></g><g clip-path="url(#5c655ee27e)"><g clip-path="url(#1b49117878)"><g transform="matrix(1, 0, 0, 1, 24, 455)"><g clip-path="url(#35016844f9)"><g clip-path="url(#022894c2a2)"><g clip-path="url(#ec38e521b8)"><rect x="-707.697" width="2448.144" fill="#ffffff" y="-1292.696977" height="2448.143889" fill-opacity="1"/></g></g></g></g></g></g><g clip-path="url(#027893c535)"><g clip-path="url(#a092e4d12f)"><g transform="matrix(1, 0, 0, 1, 12, 5)"><g clip-path="url(#2ebd332bd8)"><g clip-path="url(#89cce74cc0)"><g clip-path="url(#d8a5a5e8de)"><rect x="-695.697" width="2448.144" fill="#ffffff" y="-842.696977" height="2448.143889" fill-opacity="1"/></g></g></g></g></g></g><g clip-path="url(#e3d2d6a1b8)"><g clip-path="url(#73a97630a8)"><g transform="matrix(1, 0, 0, 1, 11, 5)"><g clip-path="url(#b4df9c6681)"><g clip-path="url(#1064823043)"><g clip-path="url(#f5232e3429)"><rect x="-694.697" width="2448.144" fill="#ffffff" y="-842.696977" height="2448.143889" fill-opacity="1"/></g></g></g></g></g></g><g clip-path="url(#977ec05b82)"><g clip-path="url(#02c76ff6ab)"><g transform="matrix(1, 0, 0, 1, 46, 533)"><g clip-path="url(#32c0858d49)"><g clip-path="url(#2feb6d1692)"><g clip-path="url(#10ce97a456)"><rect x="-729.697" width="2448.144" fill="#ffffff" y="-1370.696977" height="2448.143889" fill-opacity="1"/></g></g></g></g></g></g><g clip-path="url(#6baad0bb9f)"><g clip-path="url(#7272e27f11)"><g transform="matrix(1, 0, 0, 1, 44, 531)"><g clip-path="url(#dfe3cbb570)"><g clip-path="url(#b1534f3b6f)"><g clip-path="url(#ac4480602f)"><rect x="-727.697" width="2448.144" fill="#ffffff" y="-1368.696977" height="2448.143889" fill-opacity="1"/></g></g></g></g></g></g></g></g></svg>